<mxfile host="drawio-plugin" modified="2024-01-15T17:45:10.106Z" agent="5.0 (Windows NT 6.2; Win64; x64) AppleWebKit/537.36 (KHTML, like Gecko) Chrome/104.0.5112.102 Safari/537.36" etag="0TKqRW3XqZd3SurVQkhb" version="20.5.3" type="embed"><diagram id="Ll_qivSYwSle0fyhaXuh" name="Сторінка-1"><mxGraphModel dx="3422" dy="1571" grid="1" gridSize="10" guides="1" tooltips="1" connect="1" arrows="1" fold="1" page="0" pageScale="1" pageWidth="827" pageHeight="1169" background="none" math="0" shadow="0"><root><mxCell id="0"/><mxCell id="1" parent="0"/><mxCell id="2" style="edgeStyle=orthogonalEdgeStyle;rounded=0;orthogonalLoop=1;jettySize=auto;html=1;entryX=0.5;entryY=0;entryDx=0;entryDy=0;labelBackgroundColor=none;fontColor=#FFFFFF;fontFamily=Times New Roman;fontSize=13;" edge="1" parent="1" source="3" target="5"><mxGeometry relative="1" as="geometry"/></mxCell><mxCell id="3" value="Початок" style="ellipse;whiteSpace=wrap;html=1;labelBackgroundColor=none;fontColor=#FFFFFF;fontFamily=Times New Roman;fontSize=13;" vertex="1" parent="1"><mxGeometry x="90" y="-320" width="160" height="100" as="geometry"/></mxCell><mxCell id="4" style="edgeStyle=orthogonalEdgeStyle;rounded=0;orthogonalLoop=1;jettySize=auto;html=1;entryX=0.5;entryY=0;entryDx=0;entryDy=0;labelBackgroundColor=none;fontColor=#FFFFFF;fontFamily=Times New Roman;fontSize=13;" edge="1" parent="1" source="5" target="8"><mxGeometry relative="1" as="geometry"/></mxCell><mxCell id="5" value="&lt;div style=&quot;font-size: 13px;&quot;&gt;&lt;div style=&quot;font-size: 13px;&quot;&gt;Введення:&lt;/div&gt;&lt;div style=&quot;font-size: 13px;&quot;&gt;Object object&lt;/div&gt;&lt;/div&gt;" style="shape=parallelogram;perimeter=parallelogramPerimeter;whiteSpace=wrap;html=1;fixedSize=1;labelBackgroundColor=none;fontColor=#FFFFFF;fontFamily=Times New Roman;fontSize=13;" vertex="1" parent="1"><mxGeometry x="55" y="-140" width="230" height="90" as="geometry"/></mxCell><mxCell id="6" style="edgeStyle=orthogonalEdgeStyle;rounded=0;orthogonalLoop=1;jettySize=auto;html=1;entryX=0.5;entryY=0;entryDx=0;entryDy=0;labelBackgroundColor=none;fontColor=#FFFFFF;fontFamily=Times New Roman;fontSize=13;" edge="1" parent="1" source="8" target="13"><mxGeometry relative="1" as="geometry"/></mxCell><mxCell id="7" style="edgeStyle=orthogonalEdgeStyle;rounded=0;orthogonalLoop=1;jettySize=auto;html=1;entryX=0;entryY=0.5;entryDx=0;entryDy=0;labelBackgroundColor=none;fontColor=#FFFFFF;fontFamily=Times New Roman;fontSize=13;" edge="1" parent="1" source="8" target="10"><mxGeometry relative="1" as="geometry"/></mxCell><mxCell id="8" value="&lt;div style=&quot;font-size: 13px;&quot;&gt;&lt;div style=&quot;font-size: 13px;&quot;&gt;object == null&lt;/div&gt;&lt;/div&gt;" style="rhombus;whiteSpace=wrap;html=1;labelBackgroundColor=none;fontColor=#FFFFFF;fontFamily=Times New Roman;fontSize=13;" vertex="1" parent="1"><mxGeometry x="100" y="-20" width="140" height="120" as="geometry"/></mxCell><mxCell id="9" style="edgeStyle=orthogonalEdgeStyle;rounded=0;orthogonalLoop=1;jettySize=auto;html=1;entryX=0.5;entryY=1;entryDx=0;entryDy=0;labelBackgroundColor=none;fontColor=#FFFFFF;fontFamily=Times New Roman;fontSize=13;" edge="1" parent="1" source="10" target="11"><mxGeometry relative="1" as="geometry"/></mxCell><mxCell id="10" value="return null;" style="rounded=0;whiteSpace=wrap;html=1;labelBackgroundColor=none;fontColor=#FFFFFF;fontFamily=Times New Roman;fontSize=13;" vertex="1" parent="1"><mxGeometry x="370" y="10" width="120" height="60" as="geometry"/></mxCell><mxCell id="11" value="Кінець" style="ellipse;whiteSpace=wrap;html=1;labelBackgroundColor=none;fontColor=#FFFFFF;fontFamily=Times New Roman;fontSize=13;" vertex="1" parent="1"><mxGeometry x="530" y="-110" width="120" height="80" as="geometry"/></mxCell><mxCell id="12" style="edgeStyle=orthogonalEdgeStyle;rounded=0;orthogonalLoop=1;jettySize=auto;html=1;entryX=0.5;entryY=0;entryDx=0;entryDy=0;labelBackgroundColor=none;fontColor=#FFFFFF;fontFamily=Times New Roman;fontSize=13;" edge="1" parent="1" source="13" target="16"><mxGeometry relative="1" as="geometry"/></mxCell><mxCell id="13" value="&lt;div style=&quot;font-size: 13px;&quot;&gt;&lt;div style=&quot;font-size: 13px;&quot;&gt;Class&amp;lt;?&amp;gt; c = object.getClass();&lt;span style=&quot;font-size: 13px;&quot;&gt;&lt;br style=&quot;font-size: 13px;&quot;&gt;&lt;/span&gt;Field[] fields = c.getDeclaredFields()&lt;span style=&quot;font-size: 13px;&quot;&gt;;&lt;/span&gt;&lt;/div&gt;&lt;div style=&quot;font-size: 13px;&quot;&gt;&lt;div style=&quot;font-size: 13px;&quot;&gt;&lt;div style=&quot;font-size: 13px;&quot;&gt;Map&amp;lt;String, Object&amp;gt; map = &lt;span style=&quot;font-size: 13px;&quot;&gt;new &lt;/span&gt;HashMap&amp;lt;&amp;gt;()&lt;span style=&quot;font-size: 13px;&quot;&gt;;&lt;/span&gt;&lt;/div&gt;&lt;div style=&quot;font-size: 13px;&quot;&gt;&lt;div style=&quot;font-size: 13px;&quot;&gt;&lt;div style=&quot;font-size: 13px;&quot;&gt;StringBuilder sb = new StringBuilder()&lt;span style=&quot;font-size: 13px;&quot;&gt;;&lt;/span&gt;&lt;/div&gt;&lt;/div&gt;&lt;/div&gt;&lt;/div&gt;&lt;/div&gt;&lt;/div&gt;" style="rounded=0;whiteSpace=wrap;html=1;labelBackgroundColor=none;fontColor=#FFFFFF;fontFamily=Times New Roman;fontSize=13;" vertex="1" parent="1"><mxGeometry x="25" y="130" width="290" height="110" as="geometry"/></mxCell><mxCell id="14" style="edgeStyle=orthogonalEdgeStyle;rounded=0;orthogonalLoop=1;jettySize=auto;html=1;labelBackgroundColor=none;fontColor=#FFFFFF;fontFamily=Times New Roman;fontSize=13;" edge="1" parent="1" source="16" target="60"><mxGeometry relative="1" as="geometry"/></mxCell><mxCell id="15" style="edgeStyle=orthogonalEdgeStyle;rounded=0;orthogonalLoop=1;jettySize=auto;html=1;entryX=0;entryY=0.5;entryDx=0;entryDy=0;labelBackgroundColor=none;fontColor=#FFFFFF;fontFamily=Times New Roman;fontSize=13;" edge="1" parent="1" source="16" target="18"><mxGeometry relative="1" as="geometry"/></mxCell><mxCell id="16" value="&lt;div style=&quot;font-size: 13px;&quot;&gt;&lt;div style=&quot;font-size: 13px;&quot;&gt;&lt;div style=&quot;font-size: 13px;&quot;&gt;&lt;div style=&quot;font-size: 13px;&quot;&gt;c.isArray()&lt;/div&gt;&lt;/div&gt;&lt;/div&gt;&lt;/div&gt;" style="rhombus;whiteSpace=wrap;html=1;labelBackgroundColor=none;fontColor=#FFFFFF;fontFamily=Times New Roman;fontSize=13;" vertex="1" parent="1"><mxGeometry x="100" y="270" width="140" height="120" as="geometry"/></mxCell><mxCell id="17" style="edgeStyle=orthogonalEdgeStyle;rounded=0;orthogonalLoop=1;jettySize=auto;html=1;entryX=0.5;entryY=0;entryDx=0;entryDy=0;labelBackgroundColor=none;fontColor=#FFFFFF;fontFamily=Times New Roman;fontSize=13;" edge="1" parent="1" source="18" target="19"><mxGeometry relative="1" as="geometry"><Array as="points"><mxPoint x="460" y="160"/><mxPoint x="905" y="160"/></Array></mxGeometry></mxCell><mxCell id="18" value="&lt;div style=&quot;font-size: 13px;&quot;&gt;&lt;div style=&quot;font-size: 13px;&quot;&gt;return &lt;span style=&quot;font-style: italic; font-size: 13px;&quot;&gt;arrayToJSON&lt;/span&gt;(object)&lt;span style=&quot;font-size: 13px;&quot;&gt;;&lt;/span&gt;&lt;/div&gt;&lt;/div&gt;" style="rounded=0;whiteSpace=wrap;html=1;labelBackgroundColor=none;fontColor=#FFFFFF;fontFamily=Times New Roman;fontSize=13;" vertex="1" parent="1"><mxGeometry x="360" y="290" width="200" height="80" as="geometry"/></mxCell><mxCell id="19" value="Початок" style="ellipse;whiteSpace=wrap;html=1;labelBackgroundColor=none;fontColor=#FFFFFF;fontFamily=Times New Roman;fontSize=13;" vertex="1" parent="1"><mxGeometry x="845" y="180" width="120" height="80" as="geometry"/></mxCell><mxCell id="20" style="edgeStyle=orthogonalEdgeStyle;rounded=0;orthogonalLoop=1;jettySize=auto;html=1;entryX=0.5;entryY=0;entryDx=0;entryDy=0;labelBackgroundColor=none;fontColor=#FFFFFF;fontFamily=Times New Roman;fontSize=13;" edge="1" parent="1" source="21" target="23"><mxGeometry relative="1" as="geometry"/></mxCell><mxCell id="21" value="Введення:&lt;br style=&quot;font-size: 13px;&quot;&gt;Object object" style="shape=parallelogram;perimeter=parallelogramPerimeter;whiteSpace=wrap;html=1;fixedSize=1;labelBackgroundColor=none;fontColor=#FFFFFF;fontFamily=Times New Roman;fontSize=13;" vertex="1" parent="1"><mxGeometry x="830" y="300" width="120" height="60" as="geometry"/></mxCell><mxCell id="22" style="edgeStyle=orthogonalEdgeStyle;rounded=0;orthogonalLoop=1;jettySize=auto;html=1;entryX=0.5;entryY=0;entryDx=0;entryDy=0;labelBackgroundColor=none;fontColor=#FFFFFF;fontFamily=Times New Roman;fontSize=13;" edge="1" parent="1" source="23" target="26"><mxGeometry relative="1" as="geometry"/></mxCell><mxCell id="23" value="&lt;div style=&quot;font-size: 13px;&quot;&gt;&lt;div style=&quot;font-size: 13px;&quot;&gt;String s = &quot;&quot;&lt;span style=&quot;font-size: 13px;&quot;&gt;;&lt;br style=&quot;font-size: 13px;&quot;&gt;&lt;/span&gt;String s2 = &lt;span style=&quot;font-size: 13px;&quot;&gt;&quot;&quot;&lt;/span&gt;&lt;span style=&quot;font-size: 13px;&quot;&gt;;&lt;br style=&quot;font-size: 13px;&quot;&gt;&lt;/span&gt;&lt;span style=&quot;font-size: 13px;&quot;&gt;int &lt;/span&gt;length = Array.&lt;span style=&quot;font-style: italic; font-size: 13px;&quot;&gt;getLength&lt;/span&gt;(object)&lt;span style=&quot;font-size: 13px;&quot;&gt;;&lt;/span&gt;&lt;/div&gt;&lt;div style=&quot;font-size: 13px;&quot;&gt;&lt;div style=&quot;font-size: 13px;&quot;&gt;&lt;div style=&quot;font-size: 13px;&quot;&gt;s2 += (&quot;[&quot;)&lt;span style=&quot;font-size: 13px;&quot;&gt;;&lt;/span&gt;&lt;/div&gt;&lt;/div&gt;&lt;/div&gt;&lt;/div&gt;" style="rounded=0;whiteSpace=wrap;html=1;labelBackgroundColor=none;fontColor=#FFFFFF;fontFamily=Times New Roman;fontSize=13;" vertex="1" parent="1"><mxGeometry x="770" y="398.75" width="260" height="80" as="geometry"/></mxCell><mxCell id="24" style="edgeStyle=orthogonalEdgeStyle;rounded=0;orthogonalLoop=1;jettySize=auto;html=1;entryX=0.5;entryY=0;entryDx=0;entryDy=0;labelBackgroundColor=none;fontColor=#FFFFFF;fontFamily=Times New Roman;fontSize=13;" edge="1" parent="1" source="26" target="28"><mxGeometry relative="1" as="geometry"/></mxCell><mxCell id="25" style="edgeStyle=orthogonalEdgeStyle;rounded=0;orthogonalLoop=1;jettySize=auto;html=1;exitX=1;exitY=0.25;exitDx=0;exitDy=0;entryX=0.5;entryY=1;entryDx=0;entryDy=0;labelBackgroundColor=none;fontColor=#FFFFFF;fontFamily=Times New Roman;fontSize=13;" edge="1" parent="1" source="26" target="56"><mxGeometry relative="1" as="geometry"/></mxCell><mxCell id="26" value="&lt;div style=&quot;font-size: 13px;&quot;&gt;&lt;div style=&quot;font-size: 13px;&quot;&gt;int i = &lt;span style=&quot;font-size: 13px;&quot;&gt;0&lt;/span&gt;&lt;span style=&quot;font-size: 13px;&quot;&gt;; &lt;/span&gt;i &amp;lt; length&lt;span style=&quot;font-size: 13px;&quot;&gt;; &lt;/span&gt;i++&lt;/div&gt;&lt;/div&gt;" style="shape=hexagon;perimeter=hexagonPerimeter2;whiteSpace=wrap;html=1;fixedSize=1;labelBackgroundColor=none;fontColor=#FFFFFF;fontFamily=Times New Roman;fontSize=13;" vertex="1" parent="1"><mxGeometry x="790" y="505" width="220" height="100" as="geometry"/></mxCell><mxCell id="27" style="edgeStyle=orthogonalEdgeStyle;rounded=0;orthogonalLoop=1;jettySize=auto;html=1;entryX=0.5;entryY=0;entryDx=0;entryDy=0;labelBackgroundColor=none;fontColor=#FFFFFF;fontFamily=Times New Roman;fontSize=13;" edge="1" parent="1" source="28" target="30"><mxGeometry relative="1" as="geometry"/></mxCell><mxCell id="28" value="&lt;div style=&quot;font-size: 13px;&quot;&gt;&lt;div style=&quot;font-size: 13px;&quot;&gt;&lt;div style=&quot;font-size: 13px;&quot;&gt;&lt;div style=&quot;font-size: 13px;&quot;&gt;s2 += (&quot;{&quot;)&lt;span style=&quot;font-size: 13px;&quot;&gt;;&lt;br style=&quot;font-size: 13px;&quot;&gt;&lt;/span&gt;Class&amp;lt;?&amp;gt; c = Array.&lt;span style=&quot;font-style: italic; font-size: 13px;&quot;&gt;get&lt;/span&gt;(object&lt;span style=&quot;font-size: 13px;&quot;&gt;, &lt;/span&gt;i).getClass()&lt;span style=&quot;font-size: 13px;&quot;&gt;;&lt;br style=&quot;font-size: 13px;&quot;&gt;&lt;/span&gt;Field[] fields = c.getDeclaredFields()&lt;span style=&quot;font-size: 13px;&quot;&gt;;&lt;br style=&quot;font-size: 13px;&quot;&gt;&lt;/span&gt;Map&amp;lt;String&lt;span style=&quot;font-size: 13px;&quot;&gt;, &lt;/span&gt;Object&amp;gt; map = &lt;span style=&quot;font-size: 13px;&quot;&gt;new &lt;/span&gt;HashMap&amp;lt;&amp;gt;()&lt;span style=&quot;font-size: 13px;&quot;&gt;;&lt;/span&gt;&lt;/div&gt;&lt;/div&gt;&lt;/div&gt;&lt;/div&gt;" style="rounded=0;whiteSpace=wrap;html=1;labelBackgroundColor=none;fontColor=#FFFFFF;fontFamily=Times New Roman;fontSize=13;" vertex="1" parent="1"><mxGeometry x="745" y="650" width="310" height="120" as="geometry"/></mxCell><mxCell id="29" style="edgeStyle=orthogonalEdgeStyle;rounded=0;orthogonalLoop=1;jettySize=auto;html=1;entryX=0;entryY=0.25;entryDx=0;entryDy=0;labelBackgroundColor=none;fontColor=#FFFFFF;fontFamily=Times New Roman;fontSize=13;" edge="1" parent="1" source="30" target="35"><mxGeometry relative="1" as="geometry"><Array as="points"><mxPoint x="710" y="840"/><mxPoint x="710" y="1115"/></Array></mxGeometry></mxCell><mxCell id="30" value="&lt;div style=&quot;font-size: 13px;&quot;&gt;&lt;div style=&quot;font-size: 13px;&quot;&gt;&lt;div style=&quot;font-size: 13px;&quot;&gt;&lt;div style=&quot;font-size: 13px;&quot;&gt;Field f : fields&lt;/div&gt;&lt;/div&gt;&lt;/div&gt;&lt;/div&gt;" style="shape=hexagon;perimeter=hexagonPerimeter2;whiteSpace=wrap;html=1;fixedSize=1;labelBackgroundColor=none;fontColor=#FFFFFF;fontFamily=Times New Roman;fontSize=13;" vertex="1" parent="1"><mxGeometry x="790" y="790" width="220" height="100" as="geometry"/></mxCell><mxCell id="31" style="edgeStyle=orthogonalEdgeStyle;rounded=0;orthogonalLoop=1;jettySize=auto;html=1;entryX=1;entryY=0.5;entryDx=0;entryDy=0;exitX=1;exitY=0.5;exitDx=0;exitDy=0;labelBackgroundColor=none;fontColor=#FFFFFF;fontFamily=Times New Roman;fontSize=13;" edge="1" parent="1" source="32" target="30"><mxGeometry relative="1" as="geometry"/></mxCell><mxCell id="32" value="&lt;div style=&quot;font-size: 13px;&quot;&gt;&lt;div style=&quot;font-size: 13px;&quot;&gt;&lt;div style=&quot;font-size: 13px;&quot;&gt;&lt;div style=&quot;font-size: 13px;&quot;&gt;&lt;div style=&quot;font-size: 13px;&quot;&gt;&lt;div style=&quot;font-size: 13px;&quot;&gt;f.setAccessible(true)&lt;span style=&quot;font-size: 13px;&quot;&gt;;&lt;br style=&quot;font-size: 13px;&quot;&gt;&lt;/span&gt;map.put(f.getName()&lt;span style=&quot;font-size: 13px;&quot;&gt;, &lt;/span&gt;f.get(Array.&lt;span style=&quot;font-style: italic; font-size: 13px;&quot;&gt;get&lt;/span&gt;(object&lt;span style=&quot;font-size: 13px;&quot;&gt;, &lt;/span&gt;i)))&lt;span style=&quot;font-size: 13px;&quot;&gt;;&lt;/span&gt;&lt;/div&gt;&lt;/div&gt;&lt;/div&gt;&lt;/div&gt;&lt;/div&gt;&lt;/div&gt;" style="rounded=0;whiteSpace=wrap;html=1;labelBackgroundColor=none;fontColor=#FFFFFF;fontFamily=Times New Roman;fontSize=13;" vertex="1" parent="1"><mxGeometry x="746.25" y="930" width="330" height="110" as="geometry"/></mxCell><mxCell id="33" style="edgeStyle=orthogonalEdgeStyle;rounded=0;orthogonalLoop=1;jettySize=auto;html=1;entryX=0;entryY=0.5;entryDx=0;entryDy=0;labelBackgroundColor=none;fontColor=#FFFFFF;fontFamily=Times New Roman;fontSize=13;" edge="1" parent="1" source="35" target="38"><mxGeometry relative="1" as="geometry"/></mxCell><mxCell id="34" style="edgeStyle=orthogonalEdgeStyle;rounded=0;orthogonalLoop=1;jettySize=auto;html=1;exitX=0;exitY=0.75;exitDx=0;exitDy=0;entryX=0;entryY=0.5;entryDx=0;entryDy=0;labelBackgroundColor=none;fontColor=#FFFFFF;fontFamily=Times New Roman;fontSize=13;" edge="1" parent="1" source="35" target="54"><mxGeometry relative="1" as="geometry"><Array as="points"><mxPoint x="240" y="1176"/><mxPoint x="240" y="1900"/></Array></mxGeometry></mxCell><mxCell id="35" value="&lt;div style=&quot;font-size: 13px;&quot;&gt;&lt;div style=&quot;font-size: 13px;&quot;&gt;&lt;div style=&quot;font-size: 13px;&quot;&gt;&lt;div style=&quot;font-size: 13px;&quot;&gt;&lt;div style=&quot;font-size: 13px;&quot;&gt;&lt;div style=&quot;font-size: 13px;&quot;&gt;Map.Entry&amp;lt;String, Object&amp;gt; m : map.entrySet()&lt;/div&gt;&lt;/div&gt;&lt;/div&gt;&lt;/div&gt;&lt;/div&gt;&lt;/div&gt;" style="shape=hexagon;perimeter=hexagonPerimeter2;whiteSpace=wrap;html=1;fixedSize=1;labelBackgroundColor=none;fontColor=#FFFFFF;fontFamily=Times New Roman;fontSize=13;" vertex="1" parent="1"><mxGeometry x="761.25" y="1080" width="300" height="130" as="geometry"/></mxCell><mxCell id="36" style="edgeStyle=orthogonalEdgeStyle;rounded=0;orthogonalLoop=1;jettySize=auto;html=1;entryX=0.5;entryY=0;entryDx=0;entryDy=0;labelBackgroundColor=none;fontColor=#FFFFFF;fontFamily=Times New Roman;fontSize=13;" edge="1" parent="1" source="38" target="46"><mxGeometry relative="1" as="geometry"/></mxCell><mxCell id="37" style="edgeStyle=orthogonalEdgeStyle;rounded=0;orthogonalLoop=1;jettySize=auto;html=1;entryX=0;entryY=0.5;entryDx=0;entryDy=0;labelBackgroundColor=none;fontColor=#FFFFFF;fontFamily=Times New Roman;fontSize=13;" edge="1" parent="1" source="38" target="41"><mxGeometry relative="1" as="geometry"/></mxCell><mxCell id="38" value="&lt;div style=&quot;font-size: 13px;&quot;&gt;&lt;div style=&quot;font-size: 13px;&quot;&gt;m.getValue() instanceof Integer ||&lt;/div&gt;&lt;div style=&quot;font-size: 13px;&quot;&gt; m.getValue() &lt;span style=&quot;font-size: 13px;&quot;&gt;instanceof &lt;/span&gt;Double&lt;/div&gt;&lt;/div&gt;" style="rhombus;whiteSpace=wrap;html=1;labelBackgroundColor=none;fontColor=#FFFFFF;fontFamily=Times New Roman;fontSize=13;" vertex="1" parent="1"><mxGeometry x="345" y="1230" width="310" height="200" as="geometry"/></mxCell><mxCell id="39" style="edgeStyle=orthogonalEdgeStyle;rounded=0;orthogonalLoop=1;jettySize=auto;html=1;entryX=0.5;entryY=0;entryDx=0;entryDy=0;labelBackgroundColor=none;fontColor=#FFFFFF;fontFamily=Times New Roman;fontSize=13;" edge="1" parent="1" source="41" target="48"><mxGeometry relative="1" as="geometry"/></mxCell><mxCell id="40" style="edgeStyle=orthogonalEdgeStyle;rounded=0;orthogonalLoop=1;jettySize=auto;html=1;entryX=0;entryY=0.5;entryDx=0;entryDy=0;labelBackgroundColor=none;fontColor=#FFFFFF;fontFamily=Times New Roman;fontSize=13;" edge="1" parent="1" source="41" target="44"><mxGeometry relative="1" as="geometry"/></mxCell><mxCell id="41" value="&lt;div style=&quot;font-size: 13px;&quot;&gt;&lt;div style=&quot;font-size: 13px;&quot;&gt;&lt;div style=&quot;font-size: 13px;&quot;&gt;&lt;div style=&quot;font-size: 13px;&quot;&gt;m.getValue() instanceof String&lt;/div&gt;&lt;/div&gt;&lt;/div&gt;&lt;/div&gt;" style="rhombus;whiteSpace=wrap;html=1;labelBackgroundColor=none;fontColor=#FFFFFF;fontFamily=Times New Roman;fontSize=13;" vertex="1" parent="1"><mxGeometry x="766.25" y="1250" width="310" height="200" as="geometry"/></mxCell><mxCell id="42" style="edgeStyle=orthogonalEdgeStyle;rounded=0;orthogonalLoop=1;jettySize=auto;html=1;entryX=0.5;entryY=0;entryDx=0;entryDy=0;labelBackgroundColor=none;fontColor=#FFFFFF;fontFamily=Times New Roman;fontSize=13;" edge="1" parent="1" source="44" target="50"><mxGeometry relative="1" as="geometry"/></mxCell><mxCell id="43" style="edgeStyle=orthogonalEdgeStyle;rounded=0;orthogonalLoop=1;jettySize=auto;html=1;entryX=0.5;entryY=1;entryDx=0;entryDy=0;labelBackgroundColor=none;fontColor=#FFFFFF;fontFamily=Times New Roman;fontSize=13;" edge="1" parent="1" source="44" target="52"><mxGeometry relative="1" as="geometry"/></mxCell><mxCell id="44" value="&lt;div style=&quot;font-size: 13px;&quot;&gt;&lt;div style=&quot;font-size: 13px;&quot;&gt;&lt;div style=&quot;font-size: 13px;&quot;&gt;&lt;div style=&quot;font-size: 13px;&quot;&gt;m.getValue() instanceof Boolean&lt;/div&gt;&lt;/div&gt;&lt;/div&gt;&lt;/div&gt;" style="rhombus;whiteSpace=wrap;html=1;labelBackgroundColor=none;fontColor=#FFFFFF;fontFamily=Times New Roman;fontSize=13;" vertex="1" parent="1"><mxGeometry x="1195" y="1230" width="310" height="200" as="geometry"/></mxCell><mxCell id="45" style="edgeStyle=orthogonalEdgeStyle;rounded=0;orthogonalLoop=1;jettySize=auto;html=1;entryX=1;entryY=0.5;entryDx=0;entryDy=0;labelBackgroundColor=none;fontColor=#FFFFFF;fontFamily=Times New Roman;fontSize=13;" edge="1" parent="1" source="46" target="35"><mxGeometry relative="1" as="geometry"><Array as="points"><mxPoint x="500" y="1750"/><mxPoint x="2010" y="1750"/><mxPoint x="2010" y="1000"/><mxPoint x="1140" y="1000"/><mxPoint x="1140" y="1145"/></Array></mxGeometry></mxCell><mxCell id="46" value="&lt;div style=&quot;font-size: 13px;&quot;&gt;&lt;div style=&quot;font-size: 13px;&quot;&gt;s+=(&quot;&lt;span style=&quot;font-size: 13px;&quot;&gt;\&quot;&lt;/span&gt;&lt;span style=&quot;font-size: 13px;&quot;&gt;&quot;&lt;/span&gt;+m.getKey()+&lt;span style=&quot;font-size: 13px;&quot;&gt;&quot;&lt;/span&gt;&lt;span style=&quot;font-size: 13px;&quot;&gt;\&quot;&lt;/span&gt;&lt;span style=&quot;font-size: 13px;&quot;&gt;&quot;&lt;/span&gt;+&lt;span style=&quot;font-size: 13px;&quot;&gt;&quot; : &quot;&lt;/span&gt;+m.getValue()+&lt;span style=&quot;font-size: 13px;&quot;&gt;&quot;, &quot;&lt;/span&gt;)&lt;span style=&quot;font-size: 13px;&quot;&gt;;&lt;br style=&quot;font-size: 13px;&quot;&gt;&lt;/span&gt;&lt;/div&gt;&lt;/div&gt;" style="whiteSpace=wrap;html=1;labelBackgroundColor=none;fontColor=#FFFFFF;fontFamily=Times New Roman;fontSize=13;" vertex="1" parent="1"><mxGeometry x="326.25" y="1500" width="347.5" height="170" as="geometry"/></mxCell><mxCell id="47" style="edgeStyle=orthogonalEdgeStyle;rounded=0;orthogonalLoop=1;jettySize=auto;html=1;entryX=1;entryY=0.5;entryDx=0;entryDy=0;exitX=0.5;exitY=1;exitDx=0;exitDy=0;labelBackgroundColor=none;fontColor=#FFFFFF;fontFamily=Times New Roman;fontSize=13;" edge="1" parent="1" source="48" target="35"><mxGeometry relative="1" as="geometry"><Array as="points"><mxPoint x="921" y="1750"/><mxPoint x="2010" y="1750"/><mxPoint x="2010" y="1000"/><mxPoint x="1140" y="1000"/><mxPoint x="1140" y="1145"/></Array></mxGeometry></mxCell><mxCell id="48" value="&lt;div style=&quot;font-size: 13px;&quot;&gt;&lt;div style=&quot;font-size: 13px;&quot;&gt;&lt;div style=&quot;font-size: 13px;&quot;&gt;&lt;div style=&quot;font-size: 13px;&quot;&gt;s+=(&quot;&lt;span style=&quot;font-size: 13px;&quot;&gt;\&quot;&lt;/span&gt;&lt;span style=&quot;font-size: 13px;&quot;&gt;&quot;&lt;/span&gt;+m.getKey()+&lt;span style=&quot;font-size: 13px;&quot;&gt;&quot;&lt;/span&gt;&lt;span style=&quot;font-size: 13px;&quot;&gt;\&quot;&lt;/span&gt;&lt;span style=&quot;font-size: 13px;&quot;&gt;&quot;&lt;/span&gt;+&lt;span style=&quot;font-size: 13px;&quot;&gt;&quot; : &lt;/span&gt;&lt;span style=&quot;font-size: 13px;&quot;&gt;\&quot;&lt;/span&gt;&lt;span style=&quot;font-size: 13px;&quot;&gt;&quot;&lt;/span&gt;+m.getValue()+&lt;span style=&quot;font-size: 13px;&quot;&gt;&quot;&lt;/span&gt;&lt;span style=&quot;font-size: 13px;&quot;&gt;\&quot;&lt;/span&gt;&lt;span style=&quot;font-size: 13px;&quot;&gt;, &quot;&lt;/span&gt;)&lt;span style=&quot;font-size: 13px;&quot;&gt;;&lt;/span&gt;&lt;/div&gt;&lt;/div&gt;&lt;/div&gt;&lt;/div&gt;" style="whiteSpace=wrap;html=1;labelBackgroundColor=none;fontColor=#FFFFFF;fontFamily=Times New Roman;fontSize=13;" vertex="1" parent="1"><mxGeometry x="747.5" y="1500" width="347.5" height="170" as="geometry"/></mxCell><mxCell id="49" style="edgeStyle=orthogonalEdgeStyle;rounded=0;orthogonalLoop=1;jettySize=auto;html=1;entryX=1;entryY=0.5;entryDx=0;entryDy=0;exitX=0.5;exitY=1;exitDx=0;exitDy=0;labelBackgroundColor=none;fontColor=#FFFFFF;fontFamily=Times New Roman;fontSize=13;" edge="1" parent="1" source="50" target="35"><mxGeometry relative="1" as="geometry"><Array as="points"><mxPoint x="1394" y="1750"/><mxPoint x="2010" y="1750"/><mxPoint x="2010" y="1000"/><mxPoint x="1140" y="1000"/><mxPoint x="1140" y="1145"/></Array></mxGeometry></mxCell><mxCell id="50" value="&lt;div style=&quot;font-size: 13px;&quot;&gt;&lt;div style=&quot;font-size: 13px;&quot;&gt;&lt;div style=&quot;font-size: 13px;&quot;&gt;&lt;div style=&quot;font-size: 13px;&quot;&gt;s+=(&quot;&lt;span style=&quot;font-size: 13px;&quot;&gt;\&quot;&lt;/span&gt;&lt;span style=&quot;font-size: 13px;&quot;&gt;&quot;&lt;/span&gt;+m.getKey()+&lt;span style=&quot;font-size: 13px;&quot;&gt;&quot;&lt;/span&gt;&lt;span style=&quot;font-size: 13px;&quot;&gt;\&quot;&lt;/span&gt;&lt;span style=&quot;font-size: 13px;&quot;&gt;&quot;&lt;/span&gt;+&lt;span style=&quot;font-size: 13px;&quot;&gt;&quot; : &quot;&lt;/span&gt;+m.getValue()+&lt;span style=&quot;font-size: 13px;&quot;&gt;&quot;, &quot;&lt;/span&gt;)&lt;span style=&quot;font-size: 13px;&quot;&gt;;&lt;/span&gt;&lt;/div&gt;&lt;/div&gt;&lt;/div&gt;&lt;/div&gt;" style="whiteSpace=wrap;html=1;labelBackgroundColor=none;fontColor=#FFFFFF;fontFamily=Times New Roman;fontSize=13;" vertex="1" parent="1"><mxGeometry x="1220" y="1500" width="347.5" height="170" as="geometry"/></mxCell><mxCell id="51" style="edgeStyle=orthogonalEdgeStyle;rounded=0;orthogonalLoop=1;jettySize=auto;html=1;entryX=1;entryY=0.5;entryDx=0;entryDy=0;labelBackgroundColor=none;fontColor=#FFFFFF;fontFamily=Times New Roman;fontSize=13;" edge="1" parent="1" source="52" target="35"><mxGeometry relative="1" as="geometry"/></mxCell><mxCell id="52" value="&lt;div style=&quot;font-size: 13px;&quot;&gt;&lt;div style=&quot;font-size: 13px;&quot;&gt;&lt;div style=&quot;font-size: 13px;&quot;&gt;&lt;div style=&quot;font-size: 13px;&quot;&gt;s+=(&quot;&lt;span style=&quot;font-size: 13px;&quot;&gt;\&quot;&lt;/span&gt;&lt;span style=&quot;font-size: 13px;&quot;&gt;&quot;&lt;/span&gt;+m.getKey()+&lt;span style=&quot;font-size: 13px;&quot;&gt;&quot;&lt;/span&gt;&lt;span style=&quot;font-size: 13px;&quot;&gt;\&quot;&lt;/span&gt;&lt;span style=&quot;font-size: 13px;&quot;&gt;&quot;&lt;/span&gt;+&lt;span style=&quot;font-size: 13px;&quot;&gt;&quot; : &quot;&lt;/span&gt;+&lt;span style=&quot;font-style: italic; font-size: 13px;&quot;&gt;toArray&lt;/span&gt;(m.getValue())+&lt;span style=&quot;font-size: 13px;&quot;&gt;&quot;, &quot;&lt;/span&gt;)&lt;span style=&quot;font-size: 13px;&quot;&gt;;&lt;/span&gt;&lt;/div&gt;&lt;/div&gt;&lt;/div&gt;&lt;/div&gt;" style="whiteSpace=wrap;html=1;labelBackgroundColor=none;fontColor=#FFFFFF;fontFamily=Times New Roman;fontSize=13;" vertex="1" parent="1"><mxGeometry x="1567.5" y="1040" width="400" height="210" as="geometry"/></mxCell><mxCell id="53" style="edgeStyle=orthogonalEdgeStyle;rounded=0;orthogonalLoop=1;jettySize=auto;html=1;entryX=1;entryY=0.5;entryDx=0;entryDy=0;labelBackgroundColor=none;fontColor=#FFFFFF;fontFamily=Times New Roman;fontSize=13;" edge="1" parent="1" source="54" target="26"><mxGeometry relative="1" as="geometry"><Array as="points"><mxPoint x="2110" y="1900"/><mxPoint x="2110" y="555"/></Array></mxGeometry></mxCell><mxCell id="54" value="&lt;div style=&quot;font-size: 13px;&quot;&gt;&lt;div style=&quot;font-size: 13px;&quot;&gt;s2 += s.substring(0&lt;span style=&quot;font-size: 13px;&quot;&gt;, &lt;/span&gt;s.length() - &lt;span style=&quot;font-size: 13px;&quot;&gt;2&lt;/span&gt;)&lt;span style=&quot;font-size: 13px;&quot;&gt;;&lt;br style=&quot;font-size: 13px;&quot;&gt;&lt;/span&gt;s2 += (&lt;span style=&quot;font-size: 13px;&quot;&gt;&quot;}, &quot;&lt;/span&gt;)&lt;span style=&quot;font-size: 13px;&quot;&gt;;&lt;br style=&quot;font-size: 13px;&quot;&gt;&lt;/span&gt;s = &lt;span style=&quot;font-size: 13px;&quot;&gt;&quot;&quot;&lt;/span&gt;&lt;span style=&quot;font-size: 13px;&quot;&gt;;&lt;/span&gt;&lt;/div&gt;&lt;/div&gt;" style="rounded=0;whiteSpace=wrap;html=1;labelBackgroundColor=none;fontColor=#FFFFFF;fontFamily=Times New Roman;fontSize=13;" vertex="1" parent="1"><mxGeometry x="775" y="1820" width="310" height="160" as="geometry"/></mxCell><mxCell id="55" style="edgeStyle=orthogonalEdgeStyle;rounded=0;orthogonalLoop=1;jettySize=auto;html=1;entryX=0.5;entryY=1;entryDx=0;entryDy=0;labelBackgroundColor=none;fontColor=#FFFFFF;fontFamily=Times New Roman;fontSize=13;" edge="1" parent="1" source="56" target="57"><mxGeometry relative="1" as="geometry"/></mxCell><mxCell id="56" value="&lt;div style=&quot;font-size: 13px;&quot;&gt;&lt;div style=&quot;font-size: 13px;&quot;&gt;s2 = s2.substring(0&lt;span style=&quot;font-size: 13px;&quot;&gt;, &lt;/span&gt;s2.length() - &lt;span style=&quot;font-size: 13px;&quot;&gt;2&lt;/span&gt;)&lt;span style=&quot;font-size: 13px;&quot;&gt;;&lt;br style=&quot;font-size: 13px;&quot;&gt;&lt;/span&gt;s2 += (&lt;span style=&quot;font-size: 13px;&quot;&gt;&quot;]&quot;&lt;/span&gt;)&lt;span style=&quot;font-size: 13px;&quot;&gt;;&lt;br style=&quot;font-size: 13px;&quot;&gt;&lt;/span&gt;&lt;span style=&quot;font-size: 13px;&quot;&gt;return &lt;/span&gt;s2&lt;span style=&quot;font-size: 13px;&quot;&gt;;&lt;/span&gt;&lt;/div&gt;&lt;/div&gt;" style="rounded=0;whiteSpace=wrap;html=1;labelBackgroundColor=none;fontColor=#FFFFFF;fontFamily=Times New Roman;fontSize=13;" vertex="1" parent="1"><mxGeometry x="1217.5" y="340" width="265" height="110" as="geometry"/></mxCell><mxCell id="57" value="Кінець" style="ellipse;whiteSpace=wrap;html=1;labelBackgroundColor=none;fontColor=#FFFFFF;fontFamily=Times New Roman;fontSize=13;" vertex="1" parent="1"><mxGeometry x="1282.5" y="200" width="135" height="80" as="geometry"/></mxCell><mxCell id="58" style="edgeStyle=orthogonalEdgeStyle;rounded=0;orthogonalLoop=1;jettySize=auto;html=1;entryX=0.5;entryY=0;entryDx=0;entryDy=0;labelBackgroundColor=none;fontColor=#FFFFFF;fontFamily=Times New Roman;fontSize=13;" edge="1" parent="1" source="60" target="62"><mxGeometry relative="1" as="geometry"/></mxCell><mxCell id="59" style="edgeStyle=orthogonalEdgeStyle;rounded=0;orthogonalLoop=1;jettySize=auto;html=1;entryX=1;entryY=0.5;entryDx=0;entryDy=0;labelBackgroundColor=none;fontColor=#FFFFFF;fontFamily=Times New Roman;fontSize=13;" edge="1" parent="1" source="60" target="82"><mxGeometry relative="1" as="geometry"/></mxCell><mxCell id="60" value="&lt;div style=&quot;font-size: 13px;&quot;&gt;&lt;div style=&quot;font-size: 13px;&quot;&gt;Field f : fields&lt;/div&gt;&lt;/div&gt;" style="shape=hexagon;perimeter=hexagonPerimeter2;whiteSpace=wrap;html=1;fixedSize=1;labelBackgroundColor=none;fontColor=#FFFFFF;fontFamily=Times New Roman;fontSize=13;" vertex="1" parent="1"><mxGeometry x="110" y="430" width="120" height="80" as="geometry"/></mxCell><mxCell id="61" style="edgeStyle=orthogonalEdgeStyle;rounded=0;orthogonalLoop=1;jettySize=auto;html=1;entryX=1;entryY=0.5;entryDx=0;entryDy=0;exitX=1.005;exitY=0.435;exitDx=0;exitDy=0;exitPerimeter=0;labelBackgroundColor=none;fontColor=#FFFFFF;fontFamily=Times New Roman;fontSize=13;" edge="1" parent="1" source="62" target="60"><mxGeometry relative="1" as="geometry"><Array as="points"><mxPoint x="320" y="598"/><mxPoint x="320" y="470"/></Array></mxGeometry></mxCell><mxCell id="62" value="&lt;div style=&quot;font-size: 13px;&quot;&gt;&lt;div style=&quot;font-size: 13px;&quot;&gt;f.setAccessible(true)&lt;span style=&quot;font-size: 13px;&quot;&gt;;&lt;/span&gt;&lt;span style=&quot;font-size: 13px;&quot;&gt;&lt;br style=&quot;font-size: 13px;&quot;&gt;&lt;/span&gt;map.put(f.getName()&lt;span style=&quot;font-size: 13px;&quot;&gt;, &lt;/span&gt;f.get(object))&lt;span style=&quot;font-size: 13px;&quot;&gt;;&lt;/span&gt;&lt;/div&gt;&lt;/div&gt;" style="rounded=0;whiteSpace=wrap;html=1;labelBackgroundColor=none;fontColor=#FFFFFF;fontFamily=Times New Roman;fontSize=13;" vertex="1" parent="1"><mxGeometry x="40" y="550" width="260" height="110" as="geometry"/></mxCell><mxCell id="63" style="edgeStyle=orthogonalEdgeStyle;rounded=0;orthogonalLoop=1;jettySize=auto;html=1;entryX=0.5;entryY=1;entryDx=0;entryDy=0;labelBackgroundColor=none;fontColor=#FFFFFF;fontFamily=Times New Roman;fontSize=13;" edge="1" parent="1" source="65" target="84"><mxGeometry relative="1" as="geometry"/></mxCell><mxCell id="64" style="edgeStyle=orthogonalEdgeStyle;rounded=0;orthogonalLoop=1;jettySize=auto;html=1;entryX=0.5;entryY=0;entryDx=0;entryDy=0;labelBackgroundColor=none;fontColor=#FFFFFF;fontFamily=Times New Roman;fontSize=13;" edge="1" parent="1" source="65" target="73"><mxGeometry relative="1" as="geometry"/></mxCell><mxCell id="65" value="&lt;div style=&quot;font-size: 13px;&quot;&gt;&lt;div style=&quot;font-size: 13px;&quot;&gt;&lt;div style=&quot;font-size: 13px;&quot;&gt;&lt;div style=&quot;font-size: 13px;&quot;&gt;&lt;div style=&quot;font-size: 13px;&quot;&gt;&lt;div style=&quot;font-size: 13px;&quot;&gt;m.getValue() instanceof Boolean&lt;/div&gt;&lt;/div&gt;&lt;/div&gt;&lt;/div&gt;&lt;/div&gt;&lt;/div&gt;" style="rhombus;whiteSpace=wrap;html=1;labelBackgroundColor=none;fontColor=#FFFFFF;fontFamily=Times New Roman;fontSize=13;" vertex="1" parent="1"><mxGeometry x="-1027.5" y="710" width="310" height="200" as="geometry"/></mxCell><mxCell id="66" style="edgeStyle=orthogonalEdgeStyle;rounded=0;orthogonalLoop=1;jettySize=auto;html=1;entryX=1;entryY=0.5;entryDx=0;entryDy=0;labelBackgroundColor=none;fontColor=#FFFFFF;fontFamily=Times New Roman;fontSize=13;" edge="1" parent="1" source="68" target="65"><mxGeometry relative="1" as="geometry"/></mxCell><mxCell id="67" style="edgeStyle=orthogonalEdgeStyle;rounded=0;orthogonalLoop=1;jettySize=auto;html=1;entryX=0.5;entryY=0;entryDx=0;entryDy=0;labelBackgroundColor=none;fontColor=#FFFFFF;fontFamily=Times New Roman;fontSize=13;" edge="1" parent="1" source="68" target="75"><mxGeometry relative="1" as="geometry"/></mxCell><mxCell id="68" value="&lt;div style=&quot;font-size: 13px;&quot;&gt;&lt;div style=&quot;font-size: 13px;&quot;&gt;&lt;div style=&quot;font-size: 13px;&quot;&gt;&lt;div style=&quot;font-size: 13px;&quot;&gt;&lt;div style=&quot;font-size: 13px;&quot;&gt;&lt;div style=&quot;font-size: 13px;&quot;&gt;&lt;div style=&quot;font-size: 13px;&quot;&gt;&lt;div style=&quot;font-size: 13px;&quot;&gt;m.getValue() instanceof String&lt;/div&gt;&lt;/div&gt;&lt;/div&gt;&lt;/div&gt;&lt;/div&gt;&lt;/div&gt;&lt;/div&gt;&lt;/div&gt;" style="rhombus;whiteSpace=wrap;html=1;labelBackgroundColor=none;fontColor=#FFFFFF;fontFamily=Times New Roman;fontSize=13;" vertex="1" parent="1"><mxGeometry x="-607.5" y="710" width="310" height="200" as="geometry"/></mxCell><mxCell id="69" style="edgeStyle=orthogonalEdgeStyle;rounded=0;orthogonalLoop=1;jettySize=auto;html=1;entryX=0.5;entryY=0;entryDx=0;entryDy=0;labelBackgroundColor=none;fontColor=#FFFFFF;fontFamily=Times New Roman;fontSize=13;" edge="1" parent="1" source="71" target="77"><mxGeometry relative="1" as="geometry"/></mxCell><mxCell id="70" style="edgeStyle=orthogonalEdgeStyle;rounded=0;orthogonalLoop=1;jettySize=auto;html=1;entryX=1;entryY=0.5;entryDx=0;entryDy=0;labelBackgroundColor=none;fontColor=#FFFFFF;fontFamily=Times New Roman;fontSize=13;" edge="1" parent="1" source="71" target="68"><mxGeometry relative="1" as="geometry"/></mxCell><mxCell id="71" value="&lt;div style=&quot;font-size: 13px;&quot;&gt;&lt;div style=&quot;font-size: 13px;&quot;&gt;&lt;div style=&quot;font-size: 13px;&quot;&gt;&lt;div style=&quot;font-size: 13px;&quot;&gt;&lt;div style=&quot;font-size: 13px;&quot;&gt;&lt;div style=&quot;font-size: 13px;&quot;&gt;&lt;div style=&quot;font-size: 13px;&quot;&gt;&lt;div style=&quot;font-size: 13px;&quot;&gt;m.getValue() instanceof Integer &lt;/div&gt;&lt;div style=&quot;font-size: 13px;&quot;&gt;|| m.getValue() &lt;span style=&quot;font-size: 13px;&quot;&gt;instanceof &lt;/span&gt;Double&lt;/div&gt;&lt;/div&gt;&lt;/div&gt;&lt;/div&gt;&lt;/div&gt;&lt;/div&gt;&lt;/div&gt;&lt;/div&gt;" style="rhombus;whiteSpace=wrap;html=1;labelBackgroundColor=none;fontColor=#FFFFFF;fontFamily=Times New Roman;fontSize=13;" vertex="1" parent="1"><mxGeometry x="-177.5" y="710" width="310" height="200" as="geometry"/></mxCell><mxCell id="72" style="edgeStyle=orthogonalEdgeStyle;rounded=0;orthogonalLoop=1;jettySize=auto;html=1;entryX=0;entryY=0.5;entryDx=0;entryDy=0;labelBackgroundColor=none;fontColor=#FFFFFF;fontFamily=Times New Roman;fontSize=13;" edge="1" parent="1" source="73" target="80"><mxGeometry relative="1" as="geometry"><Array as="points"><mxPoint x="-1590" y="1055"/><mxPoint x="-1590" y="342"/></Array></mxGeometry></mxCell><mxCell id="73" value="&lt;div style=&quot;font-size: 13px;&quot;&gt;&lt;div style=&quot;font-size: 13px;&quot;&gt;s+=(&quot;&lt;span style=&quot;font-size: 13px;&quot;&gt;\&quot;&lt;/span&gt;&lt;span style=&quot;font-size: 13px;&quot;&gt;&quot;&lt;/span&gt;+m.getKey()+&lt;span style=&quot;font-size: 13px;&quot;&gt;&quot;&lt;/span&gt;&lt;span style=&quot;font-size: 13px;&quot;&gt;\&quot;&lt;/span&gt;&lt;span style=&quot;font-size: 13px;&quot;&gt;&quot;&lt;/span&gt;+&lt;span style=&quot;font-size: 13px;&quot;&gt;&quot; : &quot;&lt;/span&gt;+m.getValue()+&lt;span style=&quot;font-size: 13px;&quot;&gt;&quot;, &quot;&lt;/span&gt;)&lt;span style=&quot;font-size: 13px;&quot;&gt;;&lt;br style=&quot;font-size: 13px;&quot;&gt;&lt;/span&gt;&lt;/div&gt;&lt;/div&gt;" style="whiteSpace=wrap;html=1;labelBackgroundColor=none;fontColor=#FFFFFF;fontFamily=Times New Roman;fontSize=13;" vertex="1" parent="1"><mxGeometry x="-1046.25" y="970" width="347.5" height="170" as="geometry"/></mxCell><mxCell id="74" style="edgeStyle=orthogonalEdgeStyle;rounded=0;orthogonalLoop=1;jettySize=auto;html=1;entryX=0;entryY=0.5;entryDx=0;entryDy=0;labelBackgroundColor=none;fontColor=#FFFFFF;fontFamily=Times New Roman;fontSize=13;" edge="1" parent="1" source="75" target="80"><mxGeometry relative="1" as="geometry"><Array as="points"><mxPoint x="-453" y="1240"/><mxPoint x="-1590" y="1240"/><mxPoint x="-1590" y="342"/></Array></mxGeometry></mxCell><mxCell id="75" value="&lt;div style=&quot;font-size: 13px;&quot;&gt;&lt;div style=&quot;font-size: 13px;&quot;&gt;&lt;div style=&quot;font-size: 13px;&quot;&gt;&lt;div style=&quot;font-size: 13px;&quot;&gt;s+=(&quot;&lt;span style=&quot;font-size: 13px;&quot;&gt;\&quot;&lt;/span&gt;&lt;span style=&quot;font-size: 13px;&quot;&gt;&quot;&lt;/span&gt;+m.getKey()+&lt;span style=&quot;font-size: 13px;&quot;&gt;&quot;&lt;/span&gt;&lt;span style=&quot;font-size: 13px;&quot;&gt;\&quot;&lt;/span&gt;&lt;span style=&quot;font-size: 13px;&quot;&gt;&quot;&lt;/span&gt;+&lt;span style=&quot;font-size: 13px;&quot;&gt;&quot; : &lt;/span&gt;&lt;span style=&quot;font-size: 13px;&quot;&gt;\&quot;&lt;/span&gt;&lt;span style=&quot;font-size: 13px;&quot;&gt;&quot;&lt;/span&gt;+m.getValue()+&lt;span style=&quot;font-size: 13px;&quot;&gt;&quot;&lt;/span&gt;&lt;span style=&quot;font-size: 13px;&quot;&gt;\&quot;&lt;/span&gt;&lt;span style=&quot;font-size: 13px;&quot;&gt;, &quot;&lt;/span&gt;)&lt;span style=&quot;font-size: 13px;&quot;&gt;;&lt;/span&gt;&lt;/div&gt;&lt;/div&gt;&lt;/div&gt;&lt;/div&gt;" style="whiteSpace=wrap;html=1;labelBackgroundColor=none;fontColor=#FFFFFF;fontFamily=Times New Roman;fontSize=13;" vertex="1" parent="1"><mxGeometry x="-626.25" y="970" width="347.5" height="170" as="geometry"/></mxCell><mxCell id="76" style="edgeStyle=orthogonalEdgeStyle;rounded=0;orthogonalLoop=1;jettySize=auto;html=1;entryX=0;entryY=0.5;entryDx=0;entryDy=0;labelBackgroundColor=none;fontColor=#FFFFFF;fontFamily=Times New Roman;fontSize=13;" edge="1" parent="1" source="77" target="80"><mxGeometry relative="1" as="geometry"><Array as="points"><mxPoint x="-23" y="1240"/><mxPoint x="-1590" y="1240"/><mxPoint x="-1590" y="342"/></Array></mxGeometry></mxCell><mxCell id="77" value="&lt;div style=&quot;font-size: 13px;&quot;&gt;&lt;div style=&quot;font-size: 13px;&quot;&gt;&lt;div style=&quot;font-size: 13px;&quot;&gt;&lt;div style=&quot;font-size: 13px;&quot;&gt;s+=(&quot;&lt;span style=&quot;font-size: 13px;&quot;&gt;\&quot;&lt;/span&gt;&lt;span style=&quot;font-size: 13px;&quot;&gt;&quot;&lt;/span&gt;+m.getKey()+&lt;span style=&quot;font-size: 13px;&quot;&gt;&quot;&lt;/span&gt;&lt;span style=&quot;font-size: 13px;&quot;&gt;\&quot;&lt;/span&gt;&lt;span style=&quot;font-size: 13px;&quot;&gt;&quot;&lt;/span&gt;+&lt;span style=&quot;font-size: 13px;&quot;&gt;&quot; : &quot;&lt;/span&gt;+m.getValue()+&lt;span style=&quot;font-size: 13px;&quot;&gt;&quot;, &quot;&lt;/span&gt;)&lt;span style=&quot;font-size: 13px;&quot;&gt;;&lt;/span&gt;&lt;/div&gt;&lt;/div&gt;&lt;/div&gt;&lt;/div&gt;" style="whiteSpace=wrap;html=1;labelBackgroundColor=none;fontColor=#FFFFFF;fontFamily=Times New Roman;fontSize=13;" vertex="1" parent="1"><mxGeometry x="-196.25" y="970" width="347.5" height="170" as="geometry"/></mxCell><mxCell id="78" style="edgeStyle=orthogonalEdgeStyle;rounded=0;orthogonalLoop=1;jettySize=auto;html=1;entryX=0.5;entryY=0;entryDx=0;entryDy=0;labelBackgroundColor=none;fontColor=#FFFFFF;fontFamily=Times New Roman;fontSize=13;" edge="1" parent="1" source="80" target="71"><mxGeometry relative="1" as="geometry"/></mxCell><mxCell id="79" style="edgeStyle=orthogonalEdgeStyle;rounded=0;orthogonalLoop=1;jettySize=auto;html=1;exitX=0.375;exitY=0;exitDx=0;exitDy=0;labelBackgroundColor=none;fontColor=#FFFFFF;fontFamily=Times New Roman;fontSize=13;" edge="1" parent="1" source="80"><mxGeometry relative="1" as="geometry"><mxPoint x="-727.1818181818185" y="140" as="targetPoint"/></mxGeometry></mxCell><mxCell id="80" value="&lt;div style=&quot;font-size: 13px;&quot;&gt;&lt;div style=&quot;font-size: 13px;&quot;&gt;Map.Entry&amp;lt;String, Object&amp;gt; m : map.entrySet()&lt;/div&gt;&lt;/div&gt;" style="shape=hexagon;perimeter=hexagonPerimeter2;whiteSpace=wrap;html=1;fixedSize=1;labelBackgroundColor=none;fontColor=#FFFFFF;fontFamily=Times New Roman;fontSize=13;" vertex="1" parent="1"><mxGeometry x="-840" y="530" width="300" height="112.5" as="geometry"/></mxCell><mxCell id="81" style="edgeStyle=orthogonalEdgeStyle;rounded=0;orthogonalLoop=1;jettySize=auto;html=1;entryX=0.5;entryY=0;entryDx=0;entryDy=0;labelBackgroundColor=none;fontColor=#FFFFFF;fontFamily=Times New Roman;fontSize=13;" edge="1" parent="1" source="82" target="80"><mxGeometry relative="1" as="geometry"/></mxCell><mxCell id="82" value="&lt;div style=&quot;font-size: 13px;&quot;&gt;&lt;div style=&quot;font-size: 13px;&quot;&gt;sb.append(&quot;{&quot;)&lt;span style=&quot;font-size: 13px;&quot;&gt;;&lt;/span&gt;&lt;/div&gt;&lt;/div&gt;" style="rounded=0;whiteSpace=wrap;html=1;labelBackgroundColor=none;fontColor=#FFFFFF;fontFamily=Times New Roman;fontSize=13;" vertex="1" parent="1"><mxGeometry x="-590" y="350" width="190" height="70" as="geometry"/></mxCell><mxCell id="83" style="edgeStyle=orthogonalEdgeStyle;rounded=0;orthogonalLoop=1;jettySize=auto;html=1;entryX=0;entryY=0.5;entryDx=0;entryDy=0;labelBackgroundColor=none;fontColor=#FFFFFF;fontFamily=Times New Roman;fontSize=13;" edge="1" parent="1" source="84" target="80"><mxGeometry relative="1" as="geometry"><Array as="points"><mxPoint x="-960" y="580"/><mxPoint x="-960" y="586"/></Array></mxGeometry></mxCell><mxCell id="84" value="&lt;div style=&quot;font-size: 13px;&quot;&gt;&lt;div style=&quot;font-size: 13px;&quot;&gt;&lt;div style=&quot;font-size: 13px;&quot;&gt;&lt;div style=&quot;font-size: 13px;&quot;&gt;sb.append(&quot;&lt;span style=&quot;font-size: 13px;&quot;&gt;\&quot;&lt;/span&gt;&lt;span style=&quot;font-size: 13px;&quot;&gt;&quot;&lt;/span&gt;+m.getKey()+&lt;span style=&quot;font-size: 13px;&quot;&gt;&quot;&lt;/span&gt;&lt;span style=&quot;font-size: 13px;&quot;&gt;\&quot;&lt;/span&gt;&lt;span style=&quot;font-size: 13px;&quot;&gt;&quot;&lt;/span&gt;+&lt;span style=&quot;font-size: 13px;&quot;&gt;&quot; : &quot;&lt;/span&gt;+&lt;span style=&quot;font-style: italic; font-size: 13px;&quot;&gt;toArray&lt;/span&gt;(m.getValue())+&lt;span style=&quot;font-size: 13px;&quot;&gt;&quot;, &quot;&lt;/span&gt;)&lt;span style=&quot;font-size: 13px;&quot;&gt;;&lt;/span&gt;&lt;/div&gt;&lt;/div&gt;&lt;/div&gt;&lt;/div&gt;" style="whiteSpace=wrap;html=1;labelBackgroundColor=none;fontColor=#FFFFFF;fontFamily=Times New Roman;fontSize=13;" vertex="1" parent="1"><mxGeometry x="-1530" y="478.75" width="450" height="191.25" as="geometry"/></mxCell><mxCell id="85" style="edgeStyle=orthogonalEdgeStyle;rounded=0;orthogonalLoop=1;jettySize=auto;html=1;entryX=0.5;entryY=1;entryDx=0;entryDy=0;labelBackgroundColor=none;fontColor=#FFFFFF;fontFamily=Times New Roman;fontSize=13;" edge="1" parent="1" source="86" target="87"><mxGeometry relative="1" as="geometry"/></mxCell><mxCell id="86" value="&lt;div style=&quot;font-size: 13px;&quot;&gt;&lt;div style=&quot;font-size: 13px;&quot;&gt;String sbString = sb.toString();&lt;br style=&quot;font-size: 13px;&quot;&gt;&lt;span style=&quot;font-size: 13px;&quot;&gt;return &lt;/span&gt;sbString.substring(&lt;span style=&quot;font-size: 13px;&quot;&gt;0&lt;/span&gt;&lt;span style=&quot;font-size: 13px;&quot;&gt;,&lt;/span&gt;sbString.length()-&lt;span style=&quot;font-size: 13px;&quot;&gt;2&lt;/span&gt;)+&lt;span style=&quot;font-size: 13px;&quot;&gt;&quot;}&quot;&lt;/span&gt;&lt;span style=&quot;font-size: 13px;&quot;&gt;;&lt;/span&gt;&lt;/div&gt;&lt;/div&gt;" style="rounded=0;whiteSpace=wrap;html=1;labelBackgroundColor=none;fontColor=#FFFFFF;fontFamily=Times New Roman;fontSize=13;" vertex="1" parent="1"><mxGeometry x="-925" y="-10" width="385" height="150" as="geometry"/></mxCell><mxCell id="87" value="&lt;b style=&quot;font-size: 13px;&quot;&gt;&lt;font style=&quot;font-size: 13px;&quot;&gt;Кінець&lt;/font&gt;&lt;/b&gt;" style="ellipse;whiteSpace=wrap;html=1;labelBackgroundColor=none;fontColor=#FFFFFF;fontFamily=Times New Roman;fontSize=13;" vertex="1" parent="1"><mxGeometry x="-800" y="-250" width="210" height="110" as="geometry"/></mxCell><mxCell id="88" style="edgeStyle=orthogonalEdgeStyle;rounded=0;orthogonalLoop=1;jettySize=auto;html=1;entryX=0.553;entryY=-0.011;entryDx=0;entryDy=0;entryPerimeter=0;labelBackgroundColor=none;fontColor=#FFFFFF;fontFamily=Times New Roman;fontSize=13;" edge="1" parent="1" source="19" target="21"><mxGeometry relative="1" as="geometry"/></mxCell><mxCell id="89" style="edgeStyle=orthogonalEdgeStyle;rounded=0;orthogonalLoop=1;jettySize=auto;html=1;entryX=0.465;entryY=0.011;entryDx=0;entryDy=0;entryPerimeter=0;labelBackgroundColor=none;fontColor=#FFFFFF;fontFamily=Times New Roman;fontSize=13;" edge="1" parent="1" source="30" target="32"><mxGeometry relative="1" as="geometry"/></mxCell><mxCell id="90" style="edgeStyle=orthogonalEdgeStyle;rounded=0;orthogonalLoop=1;jettySize=auto;html=1;exitX=0.5;exitY=1;exitDx=0;exitDy=0;labelBackgroundColor=none;fontColor=#FFFFFF;fontFamily=Times New Roman;fontSize=13;" edge="1" parent="1" source="86" target="86"><mxGeometry relative="1" as="geometry"/></mxCell><mxCell id="91" value="&lt;b style=&quot;font-size: 13px;&quot;&gt;ТАК&lt;/b&gt;" style="text;html=1;align=center;verticalAlign=middle;resizable=0;points=[];autosize=1;strokeColor=none;fillColor=none;fontColor=#FFFFFF;fontFamily=Times New Roman;fontSize=13;" vertex="1" parent="1"><mxGeometry x="210" y="-10" width="50" height="30" as="geometry"/></mxCell><mxCell id="92" value="&lt;b style=&quot;font-size: 13px;&quot;&gt;НІ&lt;/b&gt;" style="text;html=1;align=center;verticalAlign=middle;resizable=0;points=[];autosize=1;strokeColor=none;fillColor=none;fontColor=#FFFFFF;fontFamily=Times New Roman;fontSize=13;" vertex="1" parent="1"><mxGeometry x="170" y="90" width="40" height="30" as="geometry"/></mxCell><mxCell id="93" value="&lt;b style=&quot;font-size: 13px;&quot;&gt;НІ&lt;/b&gt;" style="text;html=1;align=center;verticalAlign=middle;resizable=0;points=[];autosize=1;strokeColor=none;fillColor=none;fontColor=#FFFFFF;fontFamily=Times New Roman;fontSize=13;" vertex="1" parent="1"><mxGeometry x="170" y="380" width="40" height="30" as="geometry"/></mxCell><mxCell id="94" value="&lt;b style=&quot;font-size: 13px;&quot;&gt;ТАК&lt;/b&gt;" style="text;html=1;align=center;verticalAlign=middle;resizable=0;points=[];autosize=1;strokeColor=none;fillColor=none;fontColor=#FFFFFF;fontFamily=Times New Roman;fontSize=13;" vertex="1" parent="1"><mxGeometry x="220" y="300" width="50" height="30" as="geometry"/></mxCell><mxCell id="95" value="&lt;b style=&quot;font-size: 13px;&quot;&gt;НІ&lt;/b&gt;" style="text;html=1;align=center;verticalAlign=middle;resizable=0;points=[];autosize=1;strokeColor=none;fillColor=none;fontColor=#FFFFFF;fontFamily=Times New Roman;fontSize=13;" vertex="1" parent="1"><mxGeometry x="990" y="505" width="40" height="30" as="geometry"/></mxCell><mxCell id="96" value="&lt;b style=&quot;font-size: 13px;&quot;&gt;ТАК&lt;/b&gt;" style="text;html=1;align=center;verticalAlign=middle;resizable=0;points=[];autosize=1;strokeColor=none;fillColor=none;fontColor=#FFFFFF;fontFamily=Times New Roman;fontSize=13;" vertex="1" parent="1"><mxGeometry x="896.25" y="605" width="50" height="30" as="geometry"/></mxCell><mxCell id="97" value="&lt;b style=&quot;font-size: 13px;&quot;&gt;ТАК&lt;/b&gt;" style="text;html=1;align=center;verticalAlign=middle;resizable=0;points=[];autosize=1;strokeColor=none;fillColor=none;fontColor=#FFFFFF;fontFamily=Times New Roman;fontSize=13;" vertex="1" parent="1"><mxGeometry x="896.25" y="890" width="50" height="30" as="geometry"/></mxCell><mxCell id="98" value="&lt;b style=&quot;font-size: 13px;&quot;&gt;ТАК&lt;/b&gt;" style="text;html=1;align=center;verticalAlign=middle;resizable=0;points=[];autosize=1;strokeColor=none;fillColor=none;fontColor=#FFFFFF;fontFamily=Times New Roman;fontSize=13;" vertex="1" parent="1"><mxGeometry x="720" y="1120" width="50" height="30" as="geometry"/></mxCell><mxCell id="99" value="&lt;b style=&quot;font-size: 13px;&quot;&gt;ТАК&lt;/b&gt;" style="text;html=1;align=center;verticalAlign=middle;resizable=0;points=[];autosize=1;strokeColor=none;fillColor=none;fontColor=#FFFFFF;fontFamily=Times New Roman;fontSize=13;" vertex="1" parent="1"><mxGeometry x="500" y="1420" width="50" height="30" as="geometry"/></mxCell><mxCell id="100" value="&lt;b style=&quot;font-size: 13px;&quot;&gt;ТАК&lt;/b&gt;" style="text;html=1;align=center;verticalAlign=middle;resizable=0;points=[];autosize=1;strokeColor=none;fillColor=none;fontColor=#FFFFFF;fontFamily=Times New Roman;fontSize=13;" vertex="1" parent="1"><mxGeometry x="915" y="1440" width="50" height="30" as="geometry"/></mxCell><mxCell id="101" value="&lt;b style=&quot;font-size: 13px;&quot;&gt;ТАК&lt;/b&gt;" style="text;html=1;align=center;verticalAlign=middle;resizable=0;points=[];autosize=1;strokeColor=none;fillColor=none;fontColor=#FFFFFF;fontFamily=Times New Roman;fontSize=13;" vertex="1" parent="1"><mxGeometry x="1350" y="1420" width="50" height="30" as="geometry"/></mxCell><mxCell id="102" value="&lt;b style=&quot;font-size: 13px;&quot;&gt;НІ&lt;/b&gt;" style="text;html=1;align=center;verticalAlign=middle;resizable=0;points=[];autosize=1;strokeColor=none;fillColor=none;fontColor=#FFFFFF;fontFamily=Times New Roman;fontSize=13;" vertex="1" parent="1"><mxGeometry x="80" y="440" width="40" height="30" as="geometry"/></mxCell><mxCell id="103" value="&lt;b style=&quot;font-size: 13px;&quot;&gt;Ні&lt;/b&gt;" style="text;html=1;align=center;verticalAlign=middle;resizable=0;points=[];autosize=1;strokeColor=none;fillColor=none;fontColor=#FFFFFF;fontFamily=Times New Roman;fontSize=13;" vertex="1" parent="1"><mxGeometry x="745" y="1180" width="40" height="30" as="geometry"/></mxCell><mxCell id="104" value="&lt;b style=&quot;font-size: 13px;&quot;&gt;Ні&lt;/b&gt;" style="text;html=1;align=center;verticalAlign=middle;resizable=0;points=[];autosize=1;strokeColor=none;fillColor=none;fontColor=#FFFFFF;fontFamily=Times New Roman;fontSize=13;" vertex="1" parent="1"><mxGeometry x="650" y="1300" width="40" height="30" as="geometry"/></mxCell><mxCell id="105" value="&lt;b style=&quot;font-size: 13px;&quot;&gt;Ні&lt;/b&gt;" style="text;html=1;align=center;verticalAlign=middle;resizable=0;points=[];autosize=1;strokeColor=none;fillColor=none;fontColor=#FFFFFF;fontFamily=Times New Roman;fontSize=13;" vertex="1" parent="1"><mxGeometry x="1055" y="1315" width="40" height="30" as="geometry"/></mxCell><mxCell id="106" value="&lt;b style=&quot;font-size: 13px;&quot;&gt;Ні&lt;/b&gt;" style="text;html=1;align=center;verticalAlign=middle;resizable=0;points=[];autosize=1;strokeColor=none;fillColor=none;fontColor=#FFFFFF;fontFamily=Times New Roman;fontSize=13;" vertex="1" parent="1"><mxGeometry x="1482.5" y="1300" width="40" height="30" as="geometry"/></mxCell><mxCell id="107" value="&lt;b style=&quot;font-size: 13px;&quot;&gt;ТАК&lt;/b&gt;" style="text;html=1;align=center;verticalAlign=middle;resizable=0;points=[];autosize=1;strokeColor=none;fillColor=none;fontColor=#FFFFFF;fontFamily=Times New Roman;fontSize=13;" vertex="1" parent="1"><mxGeometry x="165" y="510" width="50" height="30" as="geometry"/></mxCell><mxCell id="108" value="&lt;b style=&quot;font-size: 13px;&quot;&gt;НІ&lt;/b&gt;" style="text;html=1;align=center;verticalAlign=middle;resizable=0;points=[];autosize=1;strokeColor=none;fillColor=none;fontColor=#FFFFFF;fontFamily=Times New Roman;fontSize=13;" vertex="1" parent="1"><mxGeometry x="-770" y="500" width="40" height="30" as="geometry"/></mxCell><mxCell id="109" value="&lt;b style=&quot;font-size: 13px;&quot;&gt;ТАК&lt;/b&gt;" style="text;html=1;align=center;verticalAlign=middle;resizable=0;points=[];autosize=1;strokeColor=none;fillColor=none;fontColor=#FFFFFF;fontFamily=Times New Roman;fontSize=13;" vertex="1" parent="1"><mxGeometry x="-540" y="600" width="50" height="30" as="geometry"/></mxCell><mxCell id="110" value="&lt;b style=&quot;font-size: 13px;&quot;&gt;ТАК&lt;/b&gt;" style="text;html=1;align=center;verticalAlign=middle;resizable=0;points=[];autosize=1;strokeColor=none;fillColor=none;fontColor=#FFFFFF;fontFamily=Times New Roman;fontSize=13;" vertex="1" parent="1"><mxGeometry x="-25" y="910" width="50" height="30" as="geometry"/></mxCell><mxCell id="111" value="&lt;b style=&quot;font-size: 13px;&quot;&gt;ТАК&lt;/b&gt;" style="text;html=1;align=center;verticalAlign=middle;resizable=0;points=[];autosize=1;strokeColor=none;fillColor=none;fontColor=#FFFFFF;fontFamily=Times New Roman;fontSize=13;" vertex="1" parent="1"><mxGeometry x="-450" y="910" width="50" height="30" as="geometry"/></mxCell><mxCell id="112" value="&lt;b style=&quot;font-size: 13px;&quot;&gt;ТАК&lt;/b&gt;" style="text;html=1;align=center;verticalAlign=middle;resizable=0;points=[];autosize=1;strokeColor=none;fillColor=none;fontColor=#FFFFFF;fontFamily=Times New Roman;fontSize=13;" vertex="1" parent="1"><mxGeometry x="-870" y="910" width="50" height="30" as="geometry"/></mxCell><mxCell id="113" value="&lt;b style=&quot;font-size: 13px;&quot;&gt;НІ&lt;/b&gt;" style="text;html=1;align=center;verticalAlign=middle;resizable=0;points=[];autosize=1;strokeColor=none;fillColor=none;fontColor=#FFFFFF;fontFamily=Times New Roman;fontSize=13;" vertex="1" parent="1"><mxGeometry x="-200" y="780" width="40" height="30" as="geometry"/></mxCell><mxCell id="114" value="&lt;b style=&quot;font-size: 13px;&quot;&gt;НІ&lt;/b&gt;" style="text;html=1;align=center;verticalAlign=middle;resizable=0;points=[];autosize=1;strokeColor=none;fillColor=none;fontColor=#FFFFFF;fontFamily=Times New Roman;fontSize=13;" vertex="1" parent="1"><mxGeometry x="-1050" y="780" width="40" height="30" as="geometry"/></mxCell><mxCell id="115" value="&lt;b style=&quot;font-size: 13px;&quot;&gt;НІ&lt;/b&gt;" style="text;html=1;align=center;verticalAlign=middle;resizable=0;points=[];autosize=1;strokeColor=none;fillColor=none;fontColor=#FFFFFF;fontFamily=Times New Roman;fontSize=13;" vertex="1" parent="1"><mxGeometry x="-640" y="780" width="40" height="30" as="geometry"/></mxCell></root></mxGraphModel></diagram></mxfile>